#!OML:ASF H:\MichaelJackson\Top Level 1\Subject 1\Session 1\male.ASF
:FULLY-SPECIFIED
:DEGREES
302
root 21.6746 16.4857 -30.1204 5.63261 23.1088 0.864054
lowerback -0.294424 -4.71734 1.01593
upperback -0.529241 -6.31268 -4.64367
thorax -1.01761 -3.18967 -5.29114
lowerneck -8.61474 -6.21188 2.21237
upperneck 4.1314 -8.71455 2.64125
head 2.84114 -4.19375 0.0290496
rclavicle 4.12478e-015 1.43125e-014
rhumerus -59.003 31.0314 -82.9596
rradius 127.73
rwrist -15.9832
rhand 1.44808 -14.1076
rfingers 7.12502
rthumb 26.9766 -42.2016
lclavicle 4.12478e-015 1.43125e-014
lhumerus -47.2402 -31.2281 107.486
lradius 50.776
lwrist 10.2565
lhand 34.808 26.2127
lfingers 7.12502
lthumb 57.9698 41.9612
rfemur -30.1196 -4.98737 6.0578
rtibia 53.1009
rfoot 5.29699 -14.0089
rtoes -36.305
lfemur -20.3577 18.3858 -17.6561
ltibia 43.5616
lfoot -18.088 -6.44856
ltoes 31.7145
303
root 21.6643 16.4929 -30.0974 5.76624 22.0774 1.55229
lowerback -0.408073 -4.49835 0.838218
upperback -0.487697 -6.01774 -4.97527
thorax -0.899696 -3.0403 -5.55648
lowerneck -8.61738 -6.05509 2.35482
upperneck 4.00953 -8.51484 2.62023
head 2.79204 -4.09571 0.0114206
rclavicle 5.74488e-014 2.06736e-014
rhumerus -58.4277 33.4347 -80.0677
rradius 128.374
rwrist -17.8423
rhand 4.02701 -14.1584
rfingers 7.12502
rthumb 29.4415 -41.8453
lclavicle 5.74488e-014 2.06736e-014
lhumerus -47.3733 -31.7561 107.244
lradius 50.8886
lwrist 10.3212
lhand 35.4112 26.17
lfingers 7.12502
lthumb 58.4948 41.439
rfemur -29.9956 -4.29376 5.04835
rtibia 52.7952
rfoot 4.88814 -12.6362
rtoes -37.538
lfemur -19.5072 16.8417 -17.2665
ltibia 42.9979
lfoot -17.2646 -8.2111
ltoes 30.6053
304
root 21.654 16.5024 -30.0725 5.90887 21.0563 2.26172
lowerback -0.554988 -4.31267 0.661811
upperback -0.459953 -5.76605 -5.32184
thorax -0.781975 -2.91293 -5.8392
lowerneck -8.61375 -5.86809 2.49152
upperneck 3.92316 -8.2752 2.59571
head 2.75447 -3.97735 -0.00517402
rclavicle 3.47873e-014 4.92986e-014
rhumerus -57.5016 35.7666 -76.7863
rradius 128.831
rwrist -19.6073
rhand 6.93207 -14.1807
rfingers 7.12502
rthumb 32.211 -41.3441
lclavicle 3.47873e-014 4.92986e-014
lhumerus -47.4811 -32.1364 106.916
lradius 50.9632
lwrist 10.4912
lhand 36.0464 26.235
lfingers 7.12502
lthumb 59.045 40.9803
rfemur -29.8722 -3.69365 3.99814
rtibia 52.4493
rfoot 4.35669 -11.1666
rtoes -38.6341
lfemur -18.5393 15.1085 -16.8528
ltibia 42.1233
lfoot -16.4187 -10.3409
ltoes 29.902
305
root 21.6438 16.5137 -30.0452 6.06983 20.0666 2.95723
lowerback -0.751981 -4.16463 0.511452
upperback -0.456575 -5.56342 -5.66225
thorax -0.667013 -2.81079 -6.1322
lowerneck -8.68893 -5.62263 2.57719
upperneck 3.97466 -7.96451 2.63683
head 2.78462 -3.81794 0.00504443
rclavicle 3.11098e-014 7.95139e-015
rhumerus -56.197 38.0278 -73.1146
rradius 129.121
rwrist -21.2917
rhand 10.0426 -14.2774
rfingers 7.12502
rthumb 35.1668 -40.7944
lclavicle 3.11098e-014 7.95139e-015
lhumerus -47.6038 -32.3803 106.547
lradius 51.0294
lwrist 10.8368
lhand 36.6158 26.3763
lfingers 7.12502
lthumb 59.5356 40.635
rfemur -29.7404 -3.18881 2.9365
rtibia 52.0314
rfoot 3.64974 -9.55524
rtoes -39.4755
lfemur -17.5038 13.2321 -16.4088
ltibia 40.9501
lfoot -15.5309 -12.9554
ltoes 29.9335
306
root 21.6334 16.5262 -30.0149 6.25252 19.1336 3.60238
lowerback -1.01112 -4.05772 0.410732
upperback -0.482391 -5.41468 -5.97512
thorax -0.554015 -2.73647 -6.42729
lowerneck -8.83006 -5.33175 2.58976
upperneck 4.14482 -7.59687 2.74532
head 2.87419 -3.62524 0.0475356
rclavicle 8.22969e-014 2.8625e-014
rhumerus -54.4833 40.2083 -69.0383
rradius 129.246
rwrist -22.8269
rhand 13.1858 -14.5069
rfingers 7.12502
rthumb 38.1414 -40.2675
lclavicle 8.22969e-014 2.8625e-014
lhumerus -47.7768 -32.5209 106.193
lradius 51.1211
lwrist 11.3995
lhand 37.0567 26.811
lfingers 7.12502
lthumb 59.9138 40.6815
rfemur -29.5837 -2.7568 1.88965
rtibia 51.5135
rfoot 2.74263 -7.78498
rtoes -39.9562
lfemur -16.4551 11.2616 -15.9172
ltibia 39.5221
lfoot -14.4894 -16.051
ltoes 30.884
307
root 21.6224 16.5382 -29.9818 6.45628 18.277 4.15184
lowerback -1.33856 -3.99261 0.394949
upperback -0.542672 -5.32172 -6.24416
thorax -0.447407 -2.6913 -6.72779
lowerneck -9.02151 -4.99759 2.54252
upperneck 4.42058 -7.17549 2.91579
head 3.01471 -3.40119 0.120568
rclavicle 3.64273e-014 1.59028e-014
rhumerus -52.3403 42.2771 -64.5445
rradius 129.208
rwrist -24.1578
rhand 16.2931 -14.8915
rfingers 7.12502
rthumb 41.0674 -39.7864
lclavicle 3.64273e-014 1.59028e-014
lhumerus -48.0408 -32.6071 105.901
lradius 51.2605
lwrist 12.1591
lhand 37.3365 27.4035
lfingers 7.12502
lthumb 60.1529 41.0223
rfemur -29.3873 -2.37914 0.901667
rtibia 50.8735
rfoot 1.65539 -5.81927
rtoes -40.0953
lfemur -15.453 9.24803 -15.3377
ltibia 37.9099
lfoot -13.0826 -19.627
ltoes 33.0692
